<?xml version="1.0" encoding="UTF-8" standalone="no"?>
<svg width="814px" height="195px" viewBox="0 0 814 195" version="1.1" xmlns="http://www.w3.org/2000/svg" xmlns:xlink="http://www.w3.org/1999/xlink">
    <!-- Generator: Sketch 50.2 (55047) - http://www.bohemiancoding.com/sketch -->
    <title>bisq-docs</title>
    <desc>Created with Sketch.</desc>
    <defs></defs>
    <g id="bisq-docs" stroke="none" stroke-width="1" fill="none" fill-rule="evenodd">
        <g id="Group-3" transform="translate(4.000000, 1.000000)">
            <path d="M584,136.1425 L584,55 L607.715,55 C629.3375,55 639.8,68.7175 639.8,95.57125 C639.8,122.425 629.3375,136.1425 607.715,136.1425 L584,136.1425 Z M586.5575,133.8175 L607.83125,133.8175 C627.9425,133.8175 637.01,120.1 637.01,99.05875 L637.01,92.08375 C637.01,71.0425 627.9425,57.325 607.83125,57.325 L586.5575,57.325 L586.5575,133.8175 Z M676.195,137.5375 C660.85,137.5375 651.7825,127.075 651.7825,106.73125 C651.7825,86.3875 660.85,75.925 676.195,75.925 C691.54,75.925 700.6075,86.3875 700.6075,106.73125 C700.6075,127.075 691.54,137.5375 676.195,137.5375 Z M676.195,135.32875 C690.145,135.32875 697.93375,125.33125 697.93375,109.52125 L697.93375,103.94125 C697.93375,88.13125 690.145,78.13375 676.195,78.13375 C662.245,78.13375 654.45625,88.13125 654.45625,103.94125 L654.45625,109.52125 C654.45625,125.33125 662.245,135.32875 676.195,135.32875 Z M735.84,137.5375 C720.495,137.5375 711.4275,127.075 711.4275,106.73125 C711.4275,86.3875 720.495,75.925 735.84,75.925 C745.14,75.925 751.4175,80.575 755.02125,87.55 L752.92875,88.59625 C749.20875,81.85375 744.21,78.13375 735.84,78.13375 C721.89,78.13375 714.10125,88.13125 714.10125,103.94125 L714.10125,109.52125 C714.10125,125.33125 721.89,135.32875 735.84,135.32875 C744.9075,135.32875 750.4875,131.4925 754.2075,125.09875 L756.0675,126.3775 C752.23125,133.00375 746.07,137.5375 735.84,137.5375 Z M785.37125,137.5375 C775.955,137.5375 769.09625,134.39875 763.6325,126.72625 L765.725,125.33125 C771.0725,132.655 776.76875,135.32875 785.37125,135.32875 C796.415,135.32875 802.34375,130.44625 802.34375,121.7275 C802.34375,112.8925 797.22875,109.1725 787.46375,107.66125 L782.34875,106.8475 C772.0025,105.22 765.60875,101.15125 765.60875,90.92125 C765.60875,81.04 773.74625,75.925 784.20875,75.925 C794.43875,75.925 799.78625,80.11 803.6225,84.41125 L801.7625,86.03875 C798.15875,81.97 793.625,78.13375 784.325,78.13375 C774.56,78.13375 768.05,82.55125 768.05,90.805 C768.05,99.52375 772.81625,102.895 782.81375,104.5225 L787.92875,105.33625 C798.15875,106.96375 804.785,111.265 804.785,121.61125 C804.785,131.725 797.345,137.5375 785.37125,137.5375 Z" id="Docs" fill="#848484"></path>
            <path d="M497.666667,0.630849867 L497.666667,191" id="Line" stroke="#848484" stroke-width="2" stroke-linecap="square"></path>
            <g id="bisq_logo_green" transform="translate(0.000000, 20.000000)" fill="#25B135">
                <g id="Group-3-Copy" stroke-width="1" fill-rule="evenodd" transform="translate(149.935300, 3.410670)">
                    <g id="Group-2" fill-rule="nonzero">
                        <rect id="Rectangle-path" x="90.1430376" y="28.9821275" width="21.6286791" height="81.3419144"></rect>
                        <path d="M157.058415,60.8988195 L149.153801,59.1670224 C143.99641,58.1288753 141.249187,55.7034282 141.249187,52.2351787 C141.249187,48.7669291 145.37233,45.9969849 150.871393,45.9969849 C155.312514,45.4383713 159.608328,47.8142295 161.527847,51.8906814 L176.995404,41.4952435 C171.540113,32.6258174 161.910199,27.2466967 151.559353,27.2870587 C144.481497,27.2178183 137.542618,29.2690631 131.622364,33.1807553 C125.652065,37.4103266 121.968887,44.1960212 121.653869,51.5461841 C121.312198,64.0225718 129.558484,73.3798626 144.338081,77.5371066 C146.745171,78.2292048 149.495472,78.9228547 152.588984,79.6180564 C159.463967,81.0146669 160.493598,83.4308032 160.493598,85.8562502 C160.493598,90.3626469 156.370455,93.1325912 150.183432,92.788094 C143.40736,92.9076413 137.148001,89.1498157 134.023298,83.0863059 L120.970526,94.5152357 C126.495696,105.193279 137.558238,111.778475 149.50009,111.49802 C165.997278,111.842517 179.747244,100.408932 180.088916,86.2007475 C180.070447,73.3705518 172.184301,64.3624137 157.058415,60.8988195 Z" id="Shape"></path>
                        <path d="M41.8772285,27.7263715 C34.2240311,27.6934322 26.7924648,30.2953085 20.8300177,35.0952405 L20.8300177,0 L0.131551539,0 L0.131551539,64.9290237 C-0.0438505131,66.7965945 -0.0438505131,68.6765028 0.131551539,70.5440736 L0.131551539,71.5954221 C0.241270908,82.7483742 4.63735037,93.4313023 12.4083057,101.429205 C19.0109678,107.808954 27.504374,111.873649 36.6130694,113.012898 L41.8772285,113.012898 C52.8977211,113.120534 63.505378,108.82358 71.3461512,101.075613 C79.4204571,92.84896 83.8451731,81.7175212 83.6229054,70.190481 C83.6805216,58.6939522 79.2798226,47.6229339 71.3461512,39.3053493 C63.3412504,31.8550702 52.810782,27.7174212 41.8772285,27.7263715 Z M42.2259731,94.0556217 C41.046009,94.13142 39.8615974,94.0135706 38.7196756,93.7067437 L38.0174735,93.7067437 C37.6231901,93.7599318 37.2264891,93.6276476 36.942963,93.3484366 C28.468327,91.6085329 22.0058895,84.7206865 20.8064538,76.1496943 C20.3791939,74.187679 20.1440159,72.1886904 20.1042518,70.1810519 C19.7773618,64.1499328 21.9094629,58.2440374 26.0130979,53.8136158 C30.1167329,49.3831942 35.8410196,46.8070708 41.8772285,46.6742183 C57.6649929,46.6742183 63.2778967,58.9556667 63.2778967,70.190481 C63.2778967,81.7741734 58.0137376,93.7067437 42.2306859,94.0556217 L42.2259731,94.0556217 Z" id="Shape"></path>
                        <path d="M267.642397,68.5773726 C267.532505,57.4587484 263.1295,46.8087015 255.346301,38.8354154 C248.733237,32.4753035 240.22645,28.4231184 231.103404,27.2873767 L225.830951,27.2873767 C214.793773,27.1788224 204.169499,31.4608213 196.3156,39.1832196 C188.228574,47.3845513 183.796887,58.4817285 184.019505,69.9732894 C183.961798,81.4344329 188.36943,92.4713755 196.3156,100.763359 C204.169499,108.485757 214.793773,112.767756 225.830951,112.659202 C233.496206,112.69204 240.93948,110.098172 246.911321,105.313014 L246.911321,140.300234 L267.642397,140.300234 L267.642397,68.5773726 Z M225.127643,93.0928671 C209.315005,93.0928671 203.693258,80.84922 203.693258,69.6489855 C203.693258,58.448751 209.315005,46.2051039 224.773628,46.2051039 C225.955451,46.1295389 227.141729,46.2470256 228.28545,46.5529081 L228.988758,46.5529081 C229.374344,46.5048791 229.761107,46.6326745 230.041361,46.9007123 C240.030446,49.1392773 247.071492,58.0497189 246.906601,68.2436686 L246.906601,69.6536855 C247.358635,75.6927025 245.269611,81.6471235 241.13938,86.0922036 C237.00915,90.5372837 231.209319,93.07309 225.127643,93.0928671 Z" id="Shape"></path>
                    </g>
                </g>
                <path d="M106.591788,31.0181835 C111.040238,40.6996194 111.985032,42.699099 115.39599,52.544442 C117.354464,58.7297648 113.431564,67.8909399 97.2577865,60.103663 C85.7391045,54.6080704 77.4051744,50.7144319 84.2687612,41.5532568 C87.6136633,37.1078947 91.4006047,32.9678006 95.5790949,29.1881735 C100.025708,25.3011456 102.77934,22.8513884 106.591788,31.0181835 Z M102.756768,93.0294902 C111.227675,84.6915054 122.997274,94.0195468 114.776001,105.211977 C98.2117524,127.876535 69.2942764,136.914659 43.3829433,127.807838 C17.4716102,118.701016 -0.00457830646,93.8005991 0.00055915582,65.3161601 C-0.0647428523,48.250858 5.59084881,34.0107695 16.3970508,21.1836195 C26.7987618,9.53392069 42.2839261,0.199329184 57.5564076,0 C79.0249145,0 88.6164,18.7965796 81.0552695,29.2782874 C72.6065521,40.9329757 62.7820751,39.9853461 55.4761259,34.9871778 C55.4761259,34.9871778 45.4242048,27.8510648 42.4563362,25.4704343 C37.885264,21.9052669 32.8593034,21.9052669 31.0342029,27.6141574 C27.8388903,37.8416231 26.2412339,44.2670139 23.7282537,54.4944796 C22.5591685,59.6402598 21.946987,64.9062229 21.9031532,70.1939284 C21.9556246,79.9279714 26.2392944,89.113112 33.5527306,95.1732132 C38.6026128,99.9206486 44.0267498,104.217449 49.7678329,108.018217 C54.3902188,111.174654 59.7744376,112.907199 65.3006028,113.016385 L65.7554911,113.016385 C71.2816563,112.907199 76.6658752,111.174654 81.288261,108.018217 C88.7540683,103.520796 95.9259118,98.5136107 102.756768,93.0294902 Z M42.359995,81.2428703 C39.3133643,80.125839 32.4165418,74.1014613 34.4426991,69.633336 C35.2561199,67.1769516 41.1423287,66.5099863 42.9663633,66.5099863 C53.7281672,66.2876646 54.1324127,85.4886738 42.359995,81.2428703 Z M61.2876195,101.700192 C59.9130353,100.466775 57.3920368,97.9999412 55.0992081,95.942582 C54.4642573,95.2527617 54.3420675,94.2919563 54.7874945,93.4915112 C55.2329215,92.6910661 56.162264,92.201395 57.1583018,92.2423316 C61.2027536,92.0366848 65.2569379,92.0366848 69.3013897,92.2423316 C70.2397451,92.3114327 71.0518214,92.8550905 71.3928968,93.6425254 C71.7339722,94.4299602 71.5442024,95.3230107 70.9041437,95.942582 C68.6168801,97.9999412 66.0958816,100.466775 64.9494673,101.700192 C64.4520443,102.112275 63.795344,102.334366 63.1185434,102.319397 C62.4417427,102.334366 61.7850424,102.112275 61.2876195,101.700192 Z M85.4257722,81.2428703 C73.6533546,85.4886738 74.0576001,66.2876646 84.819404,66.5099863 C86.6434385,66.5099863 92.3275246,67.1769516 93.3430682,69.633336 C95.3692255,74.1014613 88.4724029,80.125839 85.4257722,81.2428703 Z" id="Combined-Shape" fill-rule="nonzero"></path>
            </g>
        </g>
    </g>
</svg>